<?xml version="1.0" encoding="utf-8"?>
<!-- Generator: Adobe Illustrator 24.0.1, SVG Export Plug-In . SVG Version: 6.00 Build 0)  -->
<svg version="1.1" xmlns="http://www.w3.org/2000/svg" xmlns:xlink="http://www.w3.org/1999/xlink" x="0px" y="0px"
	 viewBox="0 0 80 80" enable-background="new 0 0 80 80" xml:space="preserve">
<g id="Layer_19">
</g>
<g id="Layer_1">
</g>
<g id="Layer_2">
</g>
<g id="Layer_3">
</g>
<g id="Layer_4">
</g>
<g id="Layer_5">
</g>
<g id="Layer_6">
</g>
<g id="Layer_9">
</g>
<g id="Layer_10">
</g>
<g id="Layer_11">
</g>
<g id="Layer_12">
</g>
<g id="Layer_13">
	<rect y="0" fill="none" width="80" height="80"/>
	<g id="Ebene_2_5_">
		<g>
			<path fill="#FFFFFF" d="M10.1665,51.3395c-2.5128,0-4.0832-0.9872-4.8012-2.9615c-0.0449-0.0897-0.1346-0.4038-0.2244-1.5705
				c-0.0897-0.4487-0.0897-0.9423,0-1.391l0.9423-4.173c0.1795-0.8525,0.6282-1.8846,1.75-2.7371
				c-0.5384,0.0897-1.1218,0.2244-1.4807,0.4038c-0.4038,0.2244-0.8974,0.8525-1.0769,1.3013
				c-0.0897,0.2244-0.1795,0.4038-0.2244,0.5833c-0.0897,0.2692-0.1795,0.4936-0.2692,0.6731
				c-0.1795,0.2692-0.5833,0.5833-1.0769,0.6731c0,0-0.0897,0-0.1346,0c-0.0449,0-0.0897,0-0.1346,0
				c-0.0897,0-0.1795,0-0.2692-0.0449c-0.359-0.0449-0.6731-0.2692-0.8974-0.5384c-0.0449-0.0897-0.0897-0.1346-0.0897-0.1795
				c-0.0449-0.0449-0.0449-0.0897-0.0449-0.0897c0-0.0449-0.0449-0.0897-0.0449-0.1346c0-0.0449-0.0449-0.0897-0.0449-0.1346
				c0-0.0449,0-0.0897-0.0449-0.1346c0-0.0449,0-0.0897,0-0.1795c0-0.0449,0-0.0449,0-0.0897c0-0.0897,0-0.1795,0.0449-0.2692
				c0-0.0897,0.1795-0.9872,0.6731-1.9743c0.2692-0.5384,0.5384-1.032,0.8525-1.4359l0.0897-0.1346
				c0.0449-0.0449,0.0449-0.0897,0.0897-0.1346c0.4038-0.4936,0.8525-0.8525,1.3013-1.1218
				c0.7628-0.4038,1.4807-0.6731,2.2884-0.8525c0.2244-0.0449,0.4487-0.0897,0.7179-0.1346
				c0.6282-0.0897,1.3461-0.1346,2.2435-0.1795c0.5384-0.0449,1.1218-0.0897,1.7948-0.1346
				c6.1024-0.4487,8.2113-1.6153,9.737-2.6474c0.4038-0.2692,0.7628-0.5833,1.1666-0.8974c1.3013-1.032,2.782-2.1987,5.4742-2.9615
				c2.5128-0.7179,5.8332-1.0769,10.3203-1.0769c5.6088,0,8.4806,1.5256,11.4869,3.141c0.4936,0.2692,1.032,0.5385,1.5705,0.8077
				c0.8974,0.4487,1.7051,0.8974,2.5128,1.3461c2.4679,1.3461,4.6217,2.5128,7.0896,3.0063
				c1.032,0.2244,3.0512,0.4487,5.4742,0.4487c1.2564,0,2.4679-0.0449,3.7243-0.1795c0.0449,0,0.0897,0,0.1346,0s0.0897,0,0.1346,0
				s0.0449,0,0.0897,0c0.0897,0,0.1346,0.0449,0.1795,0.0449c0.0449,0,0.0449,0,0.0897,0.0449c0.0449,0,0.0897,0.0449,0.1346,0.0449
				c0.0449,0,0.0897,0.0449,0.0897,0.0449h0.0449l0.0449,0.0449c0.0897,0.0449,0.1795,0.1346,0.2244,0.1795l0.0449,0.0449
				c0.0449,0.0449,0.0897,0.0897,0.0897,0.1346l0.0449,0.0449c0.0449,0.0449,0.0449,0.0897,0.0897,0.1346v0.0449
				c0.0897,0.1795,0.1346,0.359,0.1346,0.4936c0,0.1795,0,0.359-0.0449,0.5384h2.2435c1.3461,0,2.1089,0.5833,2.5128,1.1218
				c0.5833,0.7179,0.7628,1.7051,0.5384,2.7371c-0.1346,0.6282-0.4038,1.2115-0.8077,1.6602
				c0.0449,0.4487-0.0449,0.8525-0.0897,0.9872c-0.0897,0.359-0.1795,0.6731-0.359,0.9423
				c0.1795,0.5384,0.1795,1.1218,0.0449,1.7948c-0.1795,0.8077-0.5833,1.5256-1.1666,2.0192
				c-0.1795,0.7628-0.8077,2.8269-2.1089,2.8269L10.1665,51.3395L10.1665,51.3395z M17.4804,37.4295
				c0.6282,0.1795,1.2115,0.4487,1.6602,0.8077c1.4807-1.0769,3.3204-1.6602,5.1153-1.6602c0.9872,0,1.9294,0.1795,2.782,0.5385
				c0.2244-0.6282,0.7179-1.3461,1.8397-1.8397c0-0.2244,0.0449-0.4487,0.0897-0.6282c0.4487-2.0192,2.5128-3.5897,4.6666-3.5897
				c1.3013,0,2.4679,0.5384,3.2307,1.4807c0.7179,0.8974,0.9423,2.0641,0.7179,3.1858c-0.0897,0.4038-0.2692,0.8077-0.4487,1.1666
				c0.7179-0.1795,1.4807-0.3141,2.1987-0.3141c1.4807,0,2.8269,0.4038,3.9486,1.1666c0.3141-0.1795,0.6282-0.3141,0.9872-0.4038
				c0.2244-0.0449,0.5833-0.1346,1.3461-0.1346h2.7371c1.1666,0,2.1089,0.2692,2.9166,0.7179
				c0.8525-0.4936,1.9294-0.7179,3.141-0.7179h1.6153c-1.0769-0.4936-2.1538-1.0769-3.2307-1.7051
				c-0.8077-0.4487-1.6153-0.8974-2.4679-1.3013c-0.5833-0.3141-1.1666-0.5833-1.7051-0.8974
				c-2.6922-1.4807-5.0704-2.7371-10.0062-2.7371c-4.5768,0-7.8972,0.4038-10.1408,1.1666
				c-1.7051,0.5833-2.6474,1.3461-3.7243,2.1987l-0.4038,0.3141c-0.8974,0.7179-1.9743,1.4359-3.4102,2.0641
				C19.9483,36.7565,18.8265,37.1154,17.4804,37.4295z"/>
			<g>
				
					<linearGradient id="SVGID_1_" gradientUnits="userSpaceOnUse" x1="40.1358" y1="73.4552" x2="40.1358" y2="77.9597" gradientTransform="matrix(1 0 0 1 0 -27.231)">
					<stop  offset="0.3688" style="stop-color:#262626"/>
					<stop  offset="0.4513" style="stop-color:#2D2D2D"/>
					<stop  offset="0.5732" style="stop-color:#414141"/>
					<stop  offset="0.7193" style="stop-color:#626262"/>
					<stop  offset="0.883" style="stop-color:#8F8F8F"/>
					<stop  offset="0.9164" style="stop-color:#999999"/>
				</linearGradient>
				<path fill="url(#SVGID_1_)" d="M5.7243,46.2691c0,0,0.5833,1.4807,1.5256,1.9743c0.7179,0.359,0.4936,0.2244,1.4359,0.2244
					c0.0897,0,1.4359-2.2435,2.9166-2.2435c11.442,0,60.3512,0,62.4152,0c1.2115,0,0.1346,4.4871-1.1218,4.4871
					c-1.8397,0-59.8576,0-62.7742,0s-3.814-1.4359-4.2179-2.5576C5.7691,47.7049,5.7243,46.2691,5.7243,46.2691z"/>
				<path fill="#919291" d="M2.6282,40.5256c0.0449-0.4936,0.1346-0.6731,0.3141-1.032c0,0,1.032-2.0641,2.423-2.6474l0,0
					c0.9423-0.4038,1.7051-0.5833,2.6922-0.7179l0,0c0.9872-0.1346,2.1089-0.1795,3.9935-0.3141l0,0
					c5.9678-0.4487,8.3011-1.5705,10.0511-2.782l0,0c1.75-1.2115,3.0961-2.782,6.4614-3.7691l0,0
					c2.2435-0.6282,5.3396-1.032,10.1408-1.032l0,0c6.4165,0,9.1536,2.0641,12.7882,3.9038l0,0
					c3.5897,1.8397,6.4165,3.7243,9.7818,4.3973l0,0c0.9872,0.1795,3.0063,0.4487,5.6088,0.4487l0,0
					c1.1666,0-0.8525-0.0449,0.4936-0.1795c0,0,0.4936,0.3141,0.5384,0.7628c0,0,0.0897,0.8974-0.4038,0.9423
					c0,0-0.1346,0.1795-0.6282,0.1795l0,0c-2.7371,0-4.8012-0.2692-5.9678-0.4936l0,0c-3.814-0.7628-6.7755-2.782-10.2305-4.5319
					l0,0c-3.4999-1.75-5.8332-3.7243-11.9805-3.7243l0,0c-5.2948,0-8.346,0.4936-10.3651,1.2115l0,0
					c-2.0192,0.7179-3.0063,1.5705-4.3076,2.6025l0,0c-0.8525,0.6731-1.8846,1.391-3.2756,2.0192l0,0
					c-1.8846,0.8077-4.4871,1.4359-8.5703,1.75l0,0c-1.9294,0.1346-3.0961,0.1795-3.9486,0.3141l0,0
					c-0.8525,0.0897-1.6602,0.2692-2.1987,0.5833s-1.1218,1.0769-1.3013,1.5705c-0.2244,0.4936-0.3141,0.9872-0.4487,1.2115
					c-0.1346,0.2244-0.6282,0.5384-1.0769,0.3141C2.7179,41.2884,2.5833,41.0192,2.6282,40.5256z"/>
				<g>
					<path fill="#8A0412" d="M77.2931,38.0577c-0.4487-0.5833-1.3461-1.3013-2.8717-1.3013h-3.4999
						c-0.6282,0-1.1666,0.0449-1.7051,0.1795c-0.359-0.1346-0.7628-0.1795-1.2115-0.1795H54.4988
						c-1.2115,0-2.2435,0.2244-3.141,0.6731c-0.7179-0.4038-1.6602-0.6731-2.9166-0.6731h-2.7371
						c-0.8077,0-1.2115,0.0897-1.4807,0.1346c-0.3141,0.0897-0.6282,0.1795-0.8974,0.3141
						c-1.4807-0.9423-3.455-1.2564-5.3845-0.9872c0.0449-0.1346,0.0897-0.2692,0.1346-0.4038c0.2692-1.2564,0-2.6025-0.8077-3.5897
						c-0.8525-1.0769-2.1538-1.6602-3.5897-1.6602c-2.423,0-4.6217,1.7051-5.1153,3.9486
						c-0.0449,0.1346-0.0449,0.3141-0.0897,0.4487c-0.8525,0.4038-1.3461,0.9872-1.6602,1.5256
						c-0.8077-0.2692-1.6602-0.4038-2.5576-0.4038c-1.7948,0-3.5897,0.5833-5.1153,1.5705c-1.391-0.8974-3.455-1.1666-5.3396-0.7179
						c-1.391-0.4038-3.0512-0.3141-4.5768,0.2244c-2.6474,0.9872-3.4102,2.8717-3.6794,3.9486l-0.9423,4.173
						c-0.2244,1.0769,0,2.1987,0.6731,3.0512c0.7179,0.9423,1.8846,1.4359,3.2307,1.4359c0.7628,0,1.391-0.1346,1.8846-0.359
						c0.4936,0.2244,1.0769,0.359,1.7948,0.359c0.7628,0,1.391-0.1346,1.8846-0.359c0.4936,0.2244,1.0769,0.359,1.7948,0.359
						c0.9423,0,1.6602-0.2244,2.2435-0.4936c1.6153,1.0769,3.7691,1.4359,5.8781,1.032l0.1346-0.0449
						c0.1795-0.0449,0.4038-0.1346,0.5833-0.1795c0.4038,0.1346,0.8974,0.1795,1.3461,0.1795c2.1538,0,3.455-0.8974,4.173-1.8397
						c0.6731,0,1.3461-0.0449,1.9294-0.1795c1.032,1.3013,3.1858,2.2435,5.205,2.2435c1.6153,0,3.141-0.4038,4.4871-1.1666
						c0.8974,0.4487,1.8397,0.4487,2.2884,0.4487c1.0769,0,1.8846-0.2244,2.4679-0.5385c0.2692,0.1346,0.5384,0.2692,0.8077,0.3141
						c0.7179,0.1795,1.6153,0.2244,1.8846,0.2244c0.0897,0,1.032,0,1.7948-0.2244c0.5833,0.1346,1.2115,0.2244,1.9294,0.2244h3.455
						c0.4936,0,0.9872-0.0897,1.4359-0.2692c0.4487,0.1795,0.9872,0.2692,1.6153,0.2692c0.8974,0,1.6154-0.1795,2.1538-0.4487
						c0.5833,0.3141,1.3013,0.4487,2.0192,0.4487c0.9872,0,1.8846-0.2692,2.6025-0.7179c0.8525,0.4936,1.8846,0.7179,3.141,0.7179
						h3.455c1.8846,0,3.3653-1.2564,3.7691-3.1858c0.1795-0.7179,0.1346-1.3461,0-1.8397c0.1346-0.2692,0.2243-0.5833,0.3141-0.8974
						c0.0449-0.1795,0.1346-0.4936,0.0897-0.9423c0.4038-0.4936,0.6731-1.0769,0.8077-1.75
						C78.2354,39.6731,77.7418,38.641,77.2931,38.0577z"/>
					<path fill="#C10024" d="M75.9021,39.1346c-0.3141-0.4038-0.8525-0.6282-1.5256-0.6282h-3.4999
						c-0.7179,0-1.3461,0.0897-1.8397,0.2692c-0.3141-0.1795-0.6731-0.2692-1.0769-0.2692H54.4539
						c-1.5705,0-2.5576,0.4487-3.1858,1.032c-0.4487-0.4936-1.3013-1.032-2.8717-1.032h-2.782
						c-0.6282,0-0.8974,0.0449-1.0769,0.0897c-0.7179,0.1795-1.0769,0.6282-1.2115,0.8525c0,0,0,0.0449-0.0449,0.0449
						c-0.9423-1.032-2.3782-1.6153-3.9935-1.6153c-1.6153,0-3.2307,0.5833-4.4871,1.5256c-0.0449-0.1346,0.4487-2.1089,0.359-2.1987
						c0.5384-0.4487,0.9872-1.0769,1.1218-1.75c0.1795-0.7628,0-1.5256-0.4487-2.1089c-0.4936-0.6282-1.3013-0.9872-2.1987-0.9872
						c-1.6153,0-3.0961,1.1218-3.455,2.6025c-0.0897,0.4487-0.0897,0.8974,0.0449,1.3461c-0.0897,0-0.1346,0-0.2244,0
						c-2.2884,0.4936-1.7948,1.9743-2.2884,2.7371c-0.9423-0.7179-2.1538-1.1218-3.5448-1.1218
						c-1.9743,0-3.8589,0.8525-5.205,2.1538c-0.1346-0.2244-0.3141-0.4038-0.5384-0.6282c-0.6282-0.5384-1.6602-0.8974-2.782-0.8974
						c-0.6282,0-1.3013,0.0897-1.9294,0.3141c-0.5385-0.2244-1.1666-0.3141-1.8397-0.3141c-0.7179,0-1.4359,0.1346-2.1089,0.4038
						c-1.75,0.6282-2.3781,1.8397-2.5576,2.6922l-0.9423,4.173c-0.1346,0.5833,0,1.1218,0.3141,1.5705
						c0.2692,0.359,0.8525,0.7628,1.8846,0.7628c0.9423,0,1.5256-0.2692,1.9294-0.6731c0.3141,0.3141,0.8525,0.6731,1.75,0.6731
						c0.9423,0,1.5256-0.2692,1.9294-0.6731c0.3141,0.3141,0.8525,0.6731,1.75,0.6731l0,0c1.2564,0,1.9294-0.5385,2.2435-1.0769
						c0.9423,1.1218,2.4679,1.75,4.1281,1.75c0.4487,0,0.8974-0.0449,1.391-0.1346h0.0449
						c0.4038-0.0897,0.6731-0.2692,0.8974-0.4487c0.3141,0.2244,0.8077,0.4038,1.4807,0.4038c2.7371,0,3.0961-1.8397,3.0961-1.8397
						c2.0192,0,3.0512,0.0897,3.7243-0.8525c0.0449,0.0449,0.0897,0.5385,0.4936,1.1666c0.5384,0.8077,2.2435,1.7948,3.9935,1.7948
						c1.75,0,3.3653-0.5833,4.6666-1.6153c0.4038,0.8077,1.2564,0.8974,2.1538,0.8974c1.6153,0,2.1987-0.5833,2.3782-1.1666
						c0.3141,0.4038,0.7179,0.8525,1.3461,1.032c0.4936,0.1346,1.3013,0.1346,1.391,0.1346l0,0c0,0,0.8525,0,1.3013-0.1795
						c0.1346-0.0449,0.2692-0.1346,0.4038-0.2244c0.5384,0.2244,1.2115,0.359,2.0192,0.359h3.455
						c0.5384,0,1.032-0.1795,1.391-0.5385c0.3141,0.2692,0.8525,0.5385,1.6602,0.5385l0,0c1.2115,0,1.8397-0.4936,2.1987-0.9872
						c0.0449,0.0897,0.0897,0.1346,0.1346,0.1795c0.2692,0.359,0.8525,0.7628,1.8846,0.7628l0,0
						c1.6153,0,2.2435-0.8974,2.4679-1.5256c0.0897,0.1346,0.1795,0.3141,0.2692,0.4487c0.5833,0.7179,1.5705,1.0769,2.9615,1.0769
						h3.455c1.032,0,1.8397-0.7179,2.0641-1.8397c0.0449-0.2692,0.2244-0.9872-0.2243-1.6153
						c0.2692-0.2692,0.4487-0.6731,0.5384-1.1218c0.0449-0.1795,0.1346-0.7179-0.0449-1.2115
						c0.4487-0.3141,0.8077-0.8077,0.9423-1.4807C76.2611,40.5256,76.4406,39.7628,75.9021,39.1346z"/>
					<g>
						<g>
							<path fill="#FFFFFF" d="M26.0956,47.4357c-0.6282-0.0897-1.1666-0.4038-1.032-0.9423c0,0,0.5385-2.4679,0.6282-2.7371
								c0.0449-0.2692,0.1795-0.7179,0.1346-1.1666c-0.1346-0.8974-0.8525-1.5256-2.0192-1.4807
								c-1.391,0.0449-2.7371,0.9872-3.0512,2.1987c-0.2692,1.2115,0.6282,2.1987,2.0192,2.1987
								c0.4487,0,0.8974-0.1346,1.3461-0.3141c0.1346-0.0449,0.2692-0.0449,0.2244,0.1346
								c-0.0897,0.4936-0.3141,1.3461-0.359,1.5705c-0.0897,0.3141-0.2692,0.4487-0.5385,0.5385
								c-0.359,0.0897-0.7628,0.1346-1.1666,0.1346c-2.6922,0-4.4422-1.9294-3.9038-4.2627
								c0.5384-2.3782,3.1858-4.2627,5.8781-4.2627s4.4871,1.7948,3.9486,4.2179c0,0.0449,0,0.0449,0,0.0897
								c0,0-0.4487,1.9743-0.4936,2.1089c0,0-0.2244,1.0769-0.2692,1.2564C27.3071,47.3908,26.7238,47.4806,26.0956,47.4357z"/>
							<path fill="#FFFFFF" d="M29.7301,45.2819c2.6025,0,3.2756-1.6153,3.5897-3.0512c0.1795-0.7628,0.8974-4.1281,0.8974-4.1281
								c0.1346-0.5384,0-0.8974-0.8525-0.8974c-0.0449,0-3.3204,0-3.3204,0c-0.5833,0-0.8525,0.2692-0.9872,0.8974
								c-0.0897,0.5384,0.0449,0.9872,0.5384,0.9872c0,0,1.3013,0,1.9294,0c0,0-0.2692,1.2115-0.5384,2.3333
								c-0.2244,0.9872-0.4487,1.75-1.1218,1.9294c0,0-0.8974,0.0449-0.9872,0.0897c-0.3141,0.0897-0.4487,0.3141-0.4487,0.3141
								c-0.3141,0.4936-0.2692,0.9872-0.2692,0.9872c0,0.4936,0.4038,0.5384,0.5385,0.5384
								C28.8327,45.2819,29.7301,45.2819,29.7301,45.2819z"/>
							<path fill="#FFFFFF" d="M39.3773,39.0449c-2.6922,0-5.3396,1.9294-5.8781,4.2627c-0.5384,2.3782,1.2115,4.2627,3.9038,4.2627
								s5.3396-1.9294,5.8781-4.2627C43.8195,40.9743,42.0696,39.0449,39.3773,39.0449z M40.9927,43.3525
								c-0.2692,1.2564-1.7051,2.2884-3.141,2.2884c-1.4359,0-2.3782-1.032-2.0641-2.2884c0.2692-1.2564,1.7051-2.2884,3.141-2.2884
								C40.3645,41.0641,41.2619,42.0512,40.9927,43.3525z"/>
							<path fill="#FFFFFF" d="M48.7553,44.0704c1.032-0.1346,1.6153-0.6731,1.9294-1.6602
								c0.7628-2.8717-2.0192-2.6922-2.423-2.6922c-0.3141,0-1.7051,0-2.6025,0c-0.4936,0-0.7179,0.0449-0.8077,0.0449
								c-0.3141,0.0897-0.4487,0.3141-0.4487,0.3141c-0.3141,0.4487-0.2692,0.8974-0.2692,0.8974
								c0,0.4487,0.4038,0.4936,0.5384,0.4936c0.0897,0,1.5256,0,1.5256,0h1.6602c0.1346,0,0.5384,0.0449,0.4936,0.4487
								c-0.0449,0.4038-0.359,0.5384-0.7628,0.5384h-2.4679c-0.9423,0-1.2564,0.359-1.4359,0.9423l-0.6282,2.6474
								c-0.1346,0.5385,0.3141,0.8077,1.0769,0.8077c0.8974,0,1.3013-0.2244,1.4359-0.8077l0.4038-2.0192
								c0.0897-0.0449,0.2244,0.0449,0.2692,0.1346c0,0,0,0.0449,0.0449,0.0449l1.032,1.7051
								c0.3141,0.4936,0.5833,0.7628,0.8974,0.8525c0.2692,0.0897,0.8077,0.0897,1.0769,0.0897
								c0.2692,0,0.7628-0.0449,0.8974-0.0897c0.3141-0.1346,0.2692-0.4038,0.0449-0.7179L48.7553,44.0704z"/>
							<path fill="#FFFFFF" d="M17.7496,40.2564c-0.6282-0.5385-2.1089-0.8525-3.6794-0.3141
								c-0.0897,0.0449-0.2244,0.0897-0.3141,0.1346c-0.6731-0.4487-2.0641-0.6282-3.455-0.1346
								c-1.3013,0.4936-1.7051,1.3013-1.8397,1.8397l-0.9423,4.173c-0.1346,0.5384,0.2692,0.8974,1.0769,0.8974
								c0.8974,0,1.3013-0.359,1.4359-0.8974l0.8974-3.9935c0.0897-0.3141,0.4038-0.6282,0.7179-0.6282s0.5384,0.2692,0.4487,0.5833
								l-0.8974,3.9935c-0.1346,0.5384,0.2692,0.8974,1.032,0.8974c0.8974,0,1.3013-0.359,1.4359-0.8974l0.8974-3.9935
								c0.0897-0.359,0.4038-0.5833,0.7179-0.5833s0.5384,0.2692,0.4487,0.5833l-0.8974,3.9935
								c-0.1346,0.5384,0.2692,0.8974,1.0769,0.8974c0.8974,0,1.3013-0.359,1.4359-0.8974l0.9423-4.173
								C18.4227,40.9743,18.0637,40.5256,17.7496,40.2564z"/>
							<path fill="#FFFFFF" d="M74.4214,39.6731h-3.4999c-1.0769,0-1.75,0.2244-2.2435,0.5833
								c0.0449-0.4487-0.1795-0.5833-0.6731-0.5833H54.4988c-2.3782,0-2.9615,1.1218-3.2756,2.423c0,0,0,0,0,0.0449
								c0,0-0.2692,1.1666-0.4487,1.9743c-0.2692,1.4807-0.4038,2.782,2.2435,2.782h3.455c0.4936,0,0.8077-0.359,0.9423-0.8974
								c0.1346-0.6731-0.0449-0.8525-0.6282-0.8525c0,0-1.75,0-2.6922,0c-0.7628,0-0.8974-0.3141-0.7628-1.0769
								c1.3461,0,3.4999,0,3.4999,0c0.4936,0,0.8077-0.2692,0.9423-0.8077c0.1346-0.6731-0.0897-0.8077-0.6731-0.8077
								c0,0-2.0641,0-3.4102,0c0.1795-0.7179,0.4487-1.032,1.1666-1.032c0.1346,0,0.2692,0,0.4487,0c0.4487,0,2.1538,0,4.2179,0
								l-1.032,4.5319c-0.1346,0.5384,0.2692,0.8974,1.0769,0.8974c0.8974,0,1.3013-0.359,1.4359-0.8974l1.032-4.5319
								c0.5833,0,1.1666,0,1.7051,0l-1.032,4.5319c-0.1346,0.5384,0.2692,0.8974,1.0769,0.8974c0.8974,0,1.3013-0.359,1.4359-0.8974
								l1.032-4.5319c0.9423,0,1.5256,0,1.5256,0c0.0449,0,0.0897,0,0.1346,0c-0.0897,0.2244-0.1346,0.4487-0.2243,0.6731
								c0,0,0,0,0,0.0449c0,0-0.2692,1.1666-0.4487,1.9743c-0.2692,1.4807-0.4038,2.782,2.1987,2.782h3.455
								c0.4936,0,0.8077-0.359,0.9423-0.8974c0.1346-0.6731-0.0449-0.8525-0.6282-0.8525c0,0-1.75,0-2.6922,0
								c-0.7628,0-0.8974-0.3141-0.7628-1.0769c1.3461,0,3.4999,0,3.4999,0c0.4936,0,0.8077-0.2692,0.9423-0.8077
								c0.1346-0.6731-0.0897-0.8077-0.6731-0.8077c0,0-2.0641,0-3.4102,0c0.1795-0.7179,0.4487-1.032,1.1666-1.032
								c0.1346,0,0.2692,0,0.4487,0c1.1666,0,2.423,0,2.423,0c0.4936,0,0.8077-0.359,0.9423-0.8974
								C75.1842,39.8974,75.0047,39.6731,74.4214,39.6731z"/>
						</g>
					</g>
					<g>
						<path fill="#FFEC00" d="M35.2044,34.8719c-0.2244,0.9423-1.2564,1.6602-2.2884,1.6602c-1.0769,0-1.75-0.7628-1.5256-1.6602
							c0.2244-0.9423,1.2564-1.6602,2.2884-1.6602C34.7108,33.1668,35.4287,33.9296,35.2044,34.8719z"/>
						
							<linearGradient id="SVGID_2_" gradientUnits="userSpaceOnUse" x1="32.9495" y1="59.9293" x2="33.0962" y2="63.3131" gradientTransform="matrix(1 0 0 1 0 -27.231)">
							<stop  offset="0.1453" style="stop-color:#FFFFFF"/>
							<stop  offset="0.1966" style="stop-color:#FFFEF5"/>
							<stop  offset="0.2938" style="stop-color:#FFFBDA"/>
							<stop  offset="0.4269" style="stop-color:#FFF6A8"/>
							<stop  offset="0.5888" style="stop-color:#FFEF4F"/>
							<stop  offset="0.7003" style="stop-color:#FFEC00"/>
						</linearGradient>
						<path fill="url(#SVGID_2_)" d="M34.5762,34.1988c0.0449-0.1795,0.0449-0.359,0-0.5384
							c-0.2692-0.2244-0.6282-0.359-1.032-0.359c-0.9423,0-1.8846,0.6731-2.0641,1.5256c-0.0449,0.1795-0.0449,0.359,0,0.5384
							c0.2692,0.2244,0.6282,0.359,1.032,0.359C33.4544,35.7244,34.3518,35.0514,34.5762,34.1988z"/>
						<g>
							<g>
								<g>
									
										<linearGradient id="SVGID_4_" gradientUnits="userSpaceOnUse" x1="34.0192" y1="64.0947" x2="33.0115" y2="61.5631" gradientTransform="matrix(1 0 0 1 0 -27.231)">
										<stop  offset="0" style="stop-color:#CCCCCC"/>
										<stop  offset="0.0847" style="stop-color:#C6C6C6"/>
										<stop  offset="0.1988" style="stop-color:#B5B5B5"/>
										<stop  offset="0.3297" style="stop-color:#989898"/>
										<stop  offset="0.4733" style="stop-color:#717171"/>
										<stop  offset="0.627" style="stop-color:#3F3F3F"/>
										<stop  offset="0.7871" style="stop-color:#020202"/>
										<stop  offset="0.7914" style="stop-color:#000000"/>
									</linearGradient>
									<path fill="url(#SVGID_4_)" d="M34.9351,34.9616c0.0449-0.1795,0.0449-0.359,0-0.5385
										c-0.2692-0.2244-0.6282-0.359-1.032-0.359c-0.9423,0-1.8846,0.6731-2.0641,1.5256c-0.0449,0.1795-0.0449,0.359,0,0.5384
										c0.2692,0.2244,0.6282,0.359,1.032,0.359C33.8134,36.4872,34.7557,35.8142,34.9351,34.9616z"/>
								</g>
							</g>
						</g>
						
							<linearGradient id="SVGID_5_" gradientUnits="userSpaceOnUse" x1="34.0192" y1="64.0947" x2="33.0115" y2="61.5631" gradientTransform="matrix(1 0 0 1 0 -27.231)">
							<stop  offset="0" style="stop-color:#E72D34"/>
							<stop  offset="0.0786" style="stop-color:#E73535"/>
							<stop  offset="0.1845" style="stop-color:#E94835"/>
							<stop  offset="0.3061" style="stop-color:#EC6534"/>
							<stop  offset="0.4393" style="stop-color:#F1872F"/>
							<stop  offset="0.582" style="stop-color:#F9B01B"/>
							<stop  offset="0.7305" style="stop-color:#FFDA00"/>
							<stop  offset="0.7914" style="stop-color:#FFEC00"/>
						</linearGradient>
						<path opacity="0.9" fill="url(#SVGID_5_)" enable-background="new    " d="M34.9351,34.9616
							c0.0449-0.1795,0.0449-0.359,0-0.5385c-0.2692-0.2244-0.6282-0.359-1.032-0.359c-0.9423,0-1.8846,0.6731-2.0641,1.5256
							c-0.0449,0.1795-0.0449,0.359,0,0.5384c0.2692,0.2244,0.6282,0.359,1.032,0.359
							C33.8134,36.4872,34.7557,35.8142,34.9351,34.9616z"/>
					</g>
					<g>
						<path fill="#FFEC00" d="M25.0636,43.3525c-0.1795,0.8525-1.1218,1.5256-2.0641,1.5256s-1.5705-0.6731-1.391-1.5256
							c0.1795-0.8525,1.1218-1.5256,2.0641-1.5256S25.2431,42.4999,25.0636,43.3525z"/>
						
							<linearGradient id="SVGID_6_" gradientUnits="userSpaceOnUse" x1="22.9496" y1="68.624" x2="23.0821" y2="71.6783" gradientTransform="matrix(1 0 0 1 0 -27.231)">
							<stop  offset="0.1453" style="stop-color:#FFFFFF"/>
							<stop  offset="0.1966" style="stop-color:#FFFEF5"/>
							<stop  offset="0.2938" style="stop-color:#FFFBDA"/>
							<stop  offset="0.4269" style="stop-color:#FFF6A8"/>
							<stop  offset="0.5888" style="stop-color:#FFEF4F"/>
							<stop  offset="0.7003" style="stop-color:#FFEC00"/>
						</linearGradient>
						<path fill="url(#SVGID_6_)" d="M24.4354,42.7691c0.0449-0.1795,0.0449-0.3141,0-0.4936
							c-0.2244-0.1795-0.5385-0.3141-0.9423-0.3141c-0.8525,0-1.7051,0.6282-1.8846,1.391c-0.0449,0.1795-0.0449,0.3141,0,0.4936
							c0.2244,0.1795,0.5385,0.3141,0.9423,0.3141C23.4034,44.1153,24.2559,43.4871,24.4354,42.7691z"/>
						<g>
							<g>
								<g>
									
										<linearGradient id="SVGID_7_" gradientUnits="userSpaceOnUse" x1="23.9849" y1="72.3695" x2="23.0748" y2="70.0831" gradientTransform="matrix(1 0 0 1 0 -27.231)">
										<stop  offset="0" style="stop-color:#CCCCCC"/>
										<stop  offset="0.0847" style="stop-color:#C6C6C6"/>
										<stop  offset="0.1988" style="stop-color:#B5B5B5"/>
										<stop  offset="0.3297" style="stop-color:#989898"/>
										<stop  offset="0.4733" style="stop-color:#717171"/>
										<stop  offset="0.627" style="stop-color:#3F3F3F"/>
										<stop  offset="0.7871" style="stop-color:#020202"/>
										<stop  offset="0.7914" style="stop-color:#000000"/>
									</linearGradient>
									<path fill="url(#SVGID_7_)" d="M24.8392,43.4422c0.0449-0.1795,0.0449-0.3141,0-0.4936
										c-0.2244-0.1795-0.5384-0.3141-0.9423-0.3141c-0.8525,0-1.7051,0.6282-1.8846,1.391c-0.0449,0.1795-0.0449,0.3141,0,0.4936
										c0.2244,0.1795,0.5384,0.3141,0.9423,0.3141C23.8072,44.7883,24.6597,44.1601,24.8392,43.4422z"/>
								</g>
							</g>
						</g>
						
							<linearGradient id="SVGID_8_" gradientUnits="userSpaceOnUse" x1="23.9849" y1="72.3695" x2="23.0748" y2="70.0831" gradientTransform="matrix(1 0 0 1 0 -27.231)">
							<stop  offset="0" style="stop-color:#E72D34"/>
							<stop  offset="0.0786" style="stop-color:#E73535"/>
							<stop  offset="0.1845" style="stop-color:#E94835"/>
							<stop  offset="0.3061" style="stop-color:#EC6534"/>
							<stop  offset="0.4393" style="stop-color:#F1872F"/>
							<stop  offset="0.582" style="stop-color:#F9B01B"/>
							<stop  offset="0.7305" style="stop-color:#FFDA00"/>
							<stop  offset="0.7914" style="stop-color:#FFEC00"/>
						</linearGradient>
						<path opacity="0.9" fill="url(#SVGID_8_)" enable-background="new    " d="M24.8392,43.4422
							c0.0449-0.1795,0.0449-0.3141,0-0.4936c-0.2244-0.1795-0.5384-0.3141-0.9423-0.3141c-0.8525,0-1.7051,0.6282-1.8846,1.391
							c-0.0449,0.1795-0.0449,0.3141,0,0.4936c0.2244,0.1795,0.5384,0.3141,0.9423,0.3141
							C23.8072,44.7883,24.6597,44.1601,24.8392,43.4422z"/>
					</g>
					<g>
						<path fill="#FFEC00" d="M40.0953,43.3525c-0.1795,0.8525-1.1218,1.5256-2.0641,1.5256s-1.5705-0.6731-1.391-1.5256
							c0.1795-0.8525,1.1218-1.5256,2.0641-1.5256C39.6914,41.8269,40.3196,42.4999,40.0953,43.3525z"/>
						
							<linearGradient id="SVGID_9_" gradientUnits="userSpaceOnUse" x1="38.0263" y1="68.6251" x2="38.1587" y2="71.6793" gradientTransform="matrix(1 0 0 1 0 -27.231)">
							<stop  offset="0.1453" style="stop-color:#FFFFFF"/>
							<stop  offset="0.1966" style="stop-color:#FFFEF5"/>
							<stop  offset="0.2938" style="stop-color:#FFFBDA"/>
							<stop  offset="0.4269" style="stop-color:#FFF6A8"/>
							<stop  offset="0.5888" style="stop-color:#FFEF4F"/>
							<stop  offset="0.7003" style="stop-color:#FFEC00"/>
						</linearGradient>
						<path fill="url(#SVGID_9_)" d="M39.512,42.7691c0.0449-0.1795,0.0449-0.3141,0-0.4936
							c-0.2244-0.1795-0.5384-0.3141-0.9423-0.3141c-0.8525,0-1.7051,0.6282-1.8846,1.391c-0.0449,0.1795-0.0449,0.3141,0,0.4936
							c0.2244,0.1795,0.5384,0.3141,0.9423,0.3141C38.5248,44.1153,39.3773,43.4871,39.512,42.7691z"/>
						<g>
							<g>
								<g>
									
										<linearGradient id="SVGID_10_" gradientUnits="userSpaceOnUse" x1="39.0651" y1="72.3786" x2="38.1545" y2="70.091" gradientTransform="matrix(1 0 0 1 0 -27.231)">
										<stop  offset="0" style="stop-color:#CCCCCC"/>
										<stop  offset="0.0847" style="stop-color:#C6C6C6"/>
										<stop  offset="0.1988" style="stop-color:#B5B5B5"/>
										<stop  offset="0.3297" style="stop-color:#989898"/>
										<stop  offset="0.4733" style="stop-color:#717171"/>
										<stop  offset="0.627" style="stop-color:#3F3F3F"/>
										<stop  offset="0.7871" style="stop-color:#020202"/>
										<stop  offset="0.7914" style="stop-color:#000000"/>
									</linearGradient>
									<path fill="url(#SVGID_10_)" d="M39.9158,43.4422c0.0449-0.1795,0.0449-0.3141,0-0.4936
										c-0.2244-0.1795-0.5384-0.3141-0.9423-0.3141c-0.8525,0-1.7051,0.6282-1.8846,1.391c-0.0449,0.1795-0.0449,0.3141,0,0.4936
										c0.2244,0.1795,0.5384,0.3141,0.9423,0.3141C38.9286,44.7883,39.7812,44.1601,39.9158,43.4422z"/>
								</g>
							</g>
						</g>
						
							<linearGradient id="SVGID_11_" gradientUnits="userSpaceOnUse" x1="39.0651" y1="72.3786" x2="38.1545" y2="70.091" gradientTransform="matrix(1 0 0 1 0 -27.231)">
							<stop  offset="0" style="stop-color:#E72D34"/>
							<stop  offset="0.0786" style="stop-color:#E73535"/>
							<stop  offset="0.1845" style="stop-color:#E94835"/>
							<stop  offset="0.3061" style="stop-color:#EC6534"/>
							<stop  offset="0.4393" style="stop-color:#F1872F"/>
							<stop  offset="0.582" style="stop-color:#F9B01B"/>
							<stop  offset="0.7305" style="stop-color:#FFDA00"/>
							<stop  offset="0.7914" style="stop-color:#FFEC00"/>
						</linearGradient>
						<path opacity="0.9" fill="url(#SVGID_11_)" enable-background="new    " d="M39.9158,43.4422
							c0.0449-0.1795,0.0449-0.3141,0-0.4936c-0.2244-0.1795-0.5384-0.3141-0.9423-0.3141c-0.8525,0-1.7051,0.6282-1.8846,1.391
							c-0.0449,0.1795-0.0449,0.3141,0,0.4936c0.2244,0.1795,0.5384,0.3141,0.9423,0.3141
							C38.9286,44.7883,39.7812,44.1601,39.9158,43.4422z"/>
					</g>
				</g>
				<g>
					
						<linearGradient id="SVGID_12_" gradientUnits="userSpaceOnUse" x1="15.2223" y1="83.3823" x2="57.9383" y2="47.5393" gradientTransform="matrix(1 0 0 1 0 -27.231)">
						<stop  offset="0.0038" style="stop-color:#565655"/>
						<stop  offset="0.0576" style="stop-color:#858585"/>
						<stop  offset="0.1429" style="stop-color:#C2C3C3"/>
						<stop  offset="0.1825" style="stop-color:#D9DADA"/>
						<stop  offset="0.2171" style="stop-color:#D3D3D4"/>
						<stop  offset="0.2713" style="stop-color:#C1C2C2"/>
						<stop  offset="0.3381" style="stop-color:#A4A4A5"/>
						<stop  offset="0.3536" style="stop-color:#9C9C9C"/>
						<stop  offset="0.3909" style="stop-color:#AEAEAF"/>
						<stop  offset="0.4399" style="stop-color:#BFC0C0"/>
						<stop  offset="0.4715" style="stop-color:#C5C6C6"/>
						<stop  offset="0.4733" style="stop-color:#C6C7C7"/>
						<stop  offset="0.5308" style="stop-color:#DBDCDC"/>
						<stop  offset="0.5815" style="stop-color:#E8E8E8"/>
						<stop  offset="0.6198" style="stop-color:#ECECEC"/>
						<stop  offset="0.6511" style="stop-color:#E8E9E9"/>
						<stop  offset="0.6891" style="stop-color:#DDDEDE"/>
						<stop  offset="0.7305" style="stop-color:#CBCBCB"/>
						<stop  offset="0.7719" style="stop-color:#B1B2B3"/>
						<stop  offset="1" style="stop-color:#565655"/>
					</linearGradient>
					<path fill="url(#SVGID_12_)" d="M3.2564,41.5576c-0.4936-0.0897-0.8077-0.5384-0.7179-0.9872l0,0
						c0-0.0449,0.1795-0.8525,0.6282-1.8397l0,0c0.4487-0.9423,1.1666-1.9743,2.1089-2.5128
						c0.8974-0.4936,1.7948-0.7628,2.7371-0.8974l0,0c0.9872-0.1346,2.1089-0.1795,3.9935-0.3141l0,0
						c5.9678-0.4487,8.3011-1.5705,10.0511-2.782l0,0c1.75-1.2115,3.0961-2.782,6.4614-3.7691l0,0
						c2.2435-0.6282,5.3396-1.032,10.1408-1.032l0,0c6.4165,0,9.1536,2.0641,12.7882,3.9038l0,0
						c3.5897,1.8397,6.4165,3.7243,9.7818,4.3973l0,0c0.9872,0.1795,3.0063,0.4487,5.6088,0.4487l0,0
						c1.1666,0,2.423-0.0449,3.7691-0.1795l0,0c0.4936-0.0449,0.8974,0.3141,0.9423,0.7628l0,0
						c0.0449,0.4936-0.3141,0.8974-0.8077,0.9423l0,0c-1.391,0.1346-2.7371,0.1795-3.9038,0.1795l0,0
						c-2.7371,0-4.8012-0.2692-5.9678-0.4936l0,0c-3.814-0.7628-6.7755-2.782-10.2305-4.5319l0,0
						c-3.4999-1.75-5.8332-3.7243-11.9805-3.7243l0,0c-5.2948,0-8.346,0.4936-10.3651,1.2115l0,0
						c-2.0192,0.7179-3.0063,1.5705-4.3076,2.6025l0,0c-0.8525,0.6731-1.8846,1.391-3.2756,2.0192l0,0
						c-1.8846,0.8077-4.4871,1.4807-8.5703,1.75l0,0c-1.9294,0.1346-3.0961,0.1795-3.9486,0.3141l0,0
						C7.3396,37.1154,6.7114,37.25,6.173,37.609s-0.9872,0.8525-1.3461,1.5256l0,0c-0.359,0.6731-0.5384,1.391-0.6282,1.6602l0,0
						c0,0.0897-0.0449,0.0897-0.0449,0.0897l0,0l0,0c-0.0897,0.4038-0.4487,0.7179-0.8525,0.7179l0,0
						C3.3461,41.5576,3.3013,41.5576,3.2564,41.5576L3.2564,41.5576z"/>
					
						<linearGradient id="SVGID_13_" gradientUnits="userSpaceOnUse" x1="37.0566" y1="54.6371" x2="37.0566" y2="68.7191" gradientTransform="matrix(1 0 0 1 0 -27.231)">
						<stop  offset="0.0038" style="stop-color:#D1D6DA"/>
						<stop  offset="0.2548" style="stop-color:#ECECEC"/>
						<stop  offset="0.5171" style="stop-color:#ECECEC"/>
						<stop  offset="0.7605" style="stop-color:#ADB6BC"/>
						<stop  offset="0.9924" style="stop-color:#ECECEC"/>
					</linearGradient>
					<path fill="url(#SVGID_13_)" d="M2.9872,40.9743c0-0.0449,0.1795-0.8525,0.6282-1.8397
						c0.4487-0.9872,1.1666-2.1538,2.5576-2.7371c0.9423-0.4038,1.3461-0.5833,2.3333-0.7179
						c0.9872-0.0897,2.1089-0.1795,3.9935-0.3141c5.9678-0.4487,8.3011-1.5705,10.051-2.782c1.75-1.2115,3.0961-2.782,6.4614-3.7691
						c2.2435-0.6282,5.3396-1.032,10.1408-1.032c6.4165,0,9.1536,2.0641,12.7882,3.9038c3.5897,1.8397,6.4165,3.7243,9.7818,4.3973
						c0.9872,0.1795,3.0063,0.4487,5.6088,0.4487c1.1666,0,2.423-0.0449,3.7691-0.1795c0.1795,0,0.3141,0,0.4487,0.0897
						c-0.1346-0.3141-0.4936-0.5385-0.8525-0.4936c-1.3461,0.1346-2.6025,0.1795-3.7691,0.1795
						c-2.6025,0-4.6217-0.2244-5.6088-0.4487c-3.3653-0.6731-6.1922-2.5576-9.7818-4.3973s-6.3268-3.9038-12.7882-3.9038
						c-4.8012,0-7.8973,0.4038-10.1408,1.032c-3.3653,0.9872-4.7114,2.5576-6.4614,3.7691c-1.75,1.2115-4.0832,2.3333-10.0511,2.782
						c-1.8846,0.1346-3.0512,0.1795-3.9935,0.3141c-0.9423,0.1346-1.391,0.3141-2.3333,0.7179
						c-1.3461,0.5833-2.1089,1.75-2.5576,2.7371c-0.4487,0.9872-0.5833,1.7948-0.6282,1.8397
						c-0.0897,0.4038,0.1346,0.7628,0.4936,0.9423C2.9872,41.3333,2.9423,41.1538,2.9872,40.9743z"/>
				</g>
			</g>
		</g>
	</g>
</g>
<g id="Layer_14">
</g>
<g id="Layer_15">
</g>
<g id="Layer_17">
</g>
<g id="Layer_7">
</g>
<g id="Layer_8">
</g>
<g id="Layer_18">
</g>
</svg>
